<?xml version="1.0" encoding="utf-8"?>
<!-- Generator: Adobe Illustrator 16.0.0, SVG Export Plug-In . SVG Version: 6.00 Build 0)  -->
<!DOCTYPE svg PUBLIC "-//W3C//DTD SVG 1.1//EN" "http://www.w3.org/Graphics/SVG/1.1/DTD/svg11.dtd">
<svg version="1.1" id="Layer_1" xmlns="http://www.w3.org/2000/svg" xmlns:xlink="http://www.w3.org/1999/xlink" x="0px" y="0px"
	 width="506.017px" height="209.079px" viewBox="0 0 506.017 209.079" enable-background="new 0 0 506.017 209.079"
	 xml:space="preserve">
<g>
	<rect y="-0.198" width="506.017" height="209.277" fill="none"/>
	<g>
		<g>
			<g>
				<path fill="#FFFFFF" d="M156.755,160.509c0,1.197-0.898,2.097-2.088,2.097h-4.096c-1.197,0-2.088-0.899-2.088-2.097v-22.716
					c0-4.543-3.725-8.272-8.268-8.272h-16.541v30.988c0,1.197-0.967,2.097-2.084,2.097h-4.177c-1.116,0-2.007-0.899-2.007-2.097
					V123.26c0-1.116,0.891-2.084,2.007-2.084h22.802c9.086,0,16.539,7.454,16.539,16.617V160.509z"/>
				<path fill="#FFFFFF" d="M288.583,160.509c0,1.197-0.891,2.097-2.084,2.097h-26.898c-6.854,0-12.367-5.519-12.367-12.444
					c0-6.857,5.514-12.368,12.367-12.368h20.715c0-4.543-3.725-8.272-8.271-8.272h-14.527c-1.121,0-2.016-0.977-2.016-2.093v-4.168
					c0-1.116,0.895-2.084,2.016-2.084h14.527c9.094,0,16.539,7.454,16.539,16.617V160.509z M280.316,146.062h-20.715
					c-2.314,0-4.1,1.785-4.1,4.1c0,2.31,1.785,4.168,4.1,4.168h20.715V146.062z"/>
				<path fill="#FFFFFF" d="M335.683,160.509c0,1.197-0.891,2.097-2.09,2.097h-6.184c-9.086,0-16.535-7.454-16.535-16.544v-16.541
					h-14.533c-1.117,0-2.012-0.977-2.012-2.093v-4.168c0-1.116,0.895-2.084,2.012-2.084h14.533v-13.362
					c0-1.193,0.891-2.084,2.084-2.084h4.096c1.197,0,2.092,0.891,2.092,2.084v13.362h14.447c1.199,0,2.09,0.968,2.09,2.084v4.168
					c0,1.116-0.891,2.093-2.09,2.093h-14.447v16.541c0,4.547,3.725,8.268,8.264,8.268h6.184c1.199,0,2.09,0.895,2.09,2.084V160.509z
					"/>
				<path fill="#FFFFFF" d="M410.324,146.062c0,9.09-7.445,16.544-16.531,16.544h-8.271c-9.092,0-16.541-7.454-16.541-16.544v-8.269
					c0-9.163,7.449-16.617,16.541-16.617h8.271c9.086,0,16.531,7.454,16.531,16.617V146.062z M402.056,137.793
					c0-4.543-3.721-8.272-8.264-8.272h-8.271c-4.549,0-8.268,3.729-8.268,8.272v8.269c0,4.547,3.719,8.268,8.268,8.268h8.271
					c4.543,0,8.264-3.721,8.264-8.268V137.793z"/>
				<path fill="#FFFFFF" d="M462.957,160.509c0,1.197-0.896,2.097-2.094,2.097h-4.092c-1.188,0-2.084-0.899-2.084-2.097v-22.716
					c0-4.543-3.725-8.272-8.271-8.272h-16.541v30.988c0,1.197-0.971,2.097-2.084,2.097h-4.172c-1.111,0-2.012-0.899-2.012-2.097
					V123.26c0-1.116,0.9-2.084,2.012-2.084h22.797c9.09,0,16.541,7.454,16.541,16.617V160.509z"/>
				<path fill="#FFFFFF" d="M101.466,121.176h-3.944c-1.237,0-2.24,1.003-2.24,2.24v6.103v12.372v12.445v6.033
					c0,1.237,1.003,2.24,2.24,2.24h3.788c1.237,0,2.24-1.003,2.24-2.24v-6.033v-31.074
					C103.55,122.144,102.659,121.176,101.466,121.176z"/>
				<path fill="#FFFFFF" d="M175.606,121.026h-3.944c-1.237,0-2.24,1.003-2.24,2.24v6.108v12.367v12.441v6.042
					c0,1.237,1.003,2.24,2.24,2.24h3.792c1.237,0,2.24-1.003,2.24-2.24v-6.042v-31.068
					C177.694,121.999,176.798,121.026,175.606,121.026z"/>
				<path fill="#FFFFFF" d="M355.248,121.176h-3.942c-1.236,0-2.239,1.003-2.239,2.24v6.103v12.372v12.445v6.033
					c0,1.237,1.003,2.24,2.239,2.24h3.792c1.236,0,2.239-1.003,2.239-2.24v-6.033v-31.071
					C357.336,122.144,356.443,121.176,355.248,121.176z"/>
				<path fill="#FFFFFF" d="M233.31,107.7c0-0.529-0.211-1.031-0.583-1.401c-0.37-0.37-0.882-0.579-1.408-0.576l-4.313,0.034
					c-1.089,0.016-1.96,0.896-1.96,1.982v32.942c0,0.595-0.273,1.15-0.728,1.526l-11.722,9.568l-11.645-9.568
					c-0.454-0.376-0.717-0.932-0.717-1.52v-13.375c0-0.807-0.372-1.568-1.008-2.064l-5.035-3.925
					c-0.417-0.325-0.981-0.383-1.456-0.152c-0.475,0.232-0.775,0.714-0.775,1.242v23.382c0,0.584,0.263,1.139,0.716,1.516
					l17.189,14.303c1.584,1.318,3.881,1.318,5.465,0.004l17.264-14.307c0.453-0.377,0.715-0.938,0.715-1.516V107.7z"/>
				<circle fill="#FFFFFF" cx="99.416" cy="104.409" r="7.52"/>
				<circle fill="#FFFFFF" cx="29.048" cy="104.409" r="7.518"/>
				<circle fill="#FFFFFF" cx="84.878" cy="34.221" r="7.52"/>
				<g>
					<path fill="#FFFFFF" d="M183.114,31.106"/>
				</g>
				<circle fill="#FFFFFF" cx="192.307" cy="28.851" r="7.52"/>
				<path fill="#FFFFFF" d="M181.08,180.037c0,4.149-3.368,7.513-7.522,7.513s-7.521-3.363-7.521-7.513
					c0-4.154,3.367-7.522,7.521-7.522S181.08,175.883,181.08,180.037z"/>
				<circle fill="#FFFFFF" cx="353.197" cy="104.409" r="7.52"/>
				<path fill="#FFFFFF" d="M171.736,105.729h-61.386c-0.795,0-1.446-0.653-1.446-1.451c0-0.805,0.651-1.453,1.446-1.453h56.562
					c0.218,0,0.412-0.138,0.483-0.344s0.003-0.435-0.168-0.569L142.155,82.32c-4.048-3.163-9.729-3.164-13.778-0.003l-20.126,15.711
					c-0.626,0.5-1.539,0.395-2.039-0.228c-0.496-0.631-0.391-1.546,0.236-2.041l22.495-17.567c0.957-0.747,1.517-1.892,1.519-3.105
					s-0.553-2.361-1.506-3.111l-5.351-4.214c-3.502-2.758-8.255-3.317-12.301-1.447l-11.213,5.181
					c-3.455,1.596-5.364,5.353-4.618,9.084l2.597,12.987c0.156,0.789-0.357,1.546-1.145,1.699c-0.786,0.154-1.548-0.363-1.699-1.148
					l-2.672-13.327c-0.258-1.286-1.091-2.382-2.26-2.975c-1.169-0.593-2.546-0.617-3.735-0.066L38.685,99.948
					c-0.729,0.336-1.588,0.022-1.934-0.705c-0.332-0.722-0.024-1.587,0.703-1.929L85.041,75.42l0.027-0.013
					c3.442-1.595,5.348-5.337,4.613-9.06l-4.169-21.122c-0.158-0.784,0.355-1.549,1.141-1.702c0.785-0.16,1.55,0.351,1.705,1.135
					l4.215,21.347c0.254,1.288,1.085,2.388,2.255,2.984c1.169,0.596,2.548,0.622,3.739,0.071l11.838-5.474
					c1.042-0.481,1.757-1.471,1.889-2.61c0.131-1.14-0.34-2.266-1.244-2.972L91.813,42.981c-0.626-0.493-0.737-1.401-0.246-2.032
					c0.493-0.63,1.403-0.741,2.038-0.249l18.979,14.796c3.502,2.73,8.236,3.273,12.265,1.407l56.44-26.137
					c0.726-0.352,1.594-0.052,1.941,0.674l0,0c0.33,0.674,0.086,1.482-0.533,1.869l-56.952,26.327
					c-1.039,0.48-1.753,1.465-1.888,2.601s0.331,2.261,1.229,2.97l6.941,5.481c1.903,1.507,4.588,1.515,6.503,0.024l45.225-35.289
					c0.638-0.488,1.544-0.363,2.03,0.273c0.485,0.631,0.367,1.545-0.273,2.032l-43.896,34.254c-0.953,0.748-1.517,1.896-1.517,3.11
					c-0.007,1.221,0.554,2.368,1.517,3.114l31.367,24.505c0.321,0.324,0.522,0.762,0.522,1.252
					C173.504,104.938,172.708,105.729,171.736,105.729"/>
				<path fill="#FFFFFF" d="M88.47,105.726c0.805,0,1.455-0.651,1.455-1.447c0-0.805-0.65-1.451-1.455-1.451l0,0H39.798l0,0
					c-0.801,0.005-1.446,0.66-1.441,1.461c0.008,0.8,0.66,1.441,1.464,1.438v0.004H88.47V105.726z"/>
			</g>
		</g>
	</g>
</g>
<g>
	<rect x="-324.937" y="482.069" width="506.017" height="275.875" fill="none"/>
	<g>
		<g>
			<g>
				<path fill="#FFFFFF" d="M-168.182,642.776c0,1.197-0.899,2.097-2.088,2.097h-4.095c-1.198,0-2.088-0.899-2.088-2.097v-22.716
					c0-4.543-3.725-8.272-8.268-8.272h-16.541v30.988c0,1.197-0.967,2.097-2.084,2.097h-4.177c-1.117,0-2.007-0.899-2.007-2.097
					v-37.249c0-1.116,0.89-2.084,2.007-2.084h22.801c9.086,0,16.54,7.454,16.54,16.617V642.776z"/>
				<path fill="#FFFFFF" d="M-36.354,642.776c0,1.197-0.891,2.097-2.084,2.097h-26.899c-6.853,0-12.367-5.519-12.367-12.444
					c0-6.857,5.515-12.368,12.367-12.368h20.716c0-4.543-3.726-8.272-8.272-8.272h-14.527c-1.121,0-2.016-0.977-2.016-2.093v-4.168
					c0-1.116,0.895-2.084,2.016-2.084h14.527c9.095,0,16.54,7.454,16.54,16.617V642.776z M-44.621,628.329h-20.716
					c-2.314,0-4.1,1.785-4.1,4.1c0,2.31,1.785,4.168,4.1,4.168h20.716V628.329z"/>
				<path fill="#FFFFFF" d="M10.745,642.776c0,1.197-0.891,2.097-2.089,2.097H2.473c-9.086,0-16.536-7.454-16.536-16.544v-16.541
					h-14.533c-1.116,0-2.012-0.977-2.012-2.093v-4.168c0-1.116,0.896-2.084,2.012-2.084h14.533v-13.362
					c0-1.193,0.891-2.084,2.084-2.084h4.096c1.198,0,2.093,0.891,2.093,2.084v13.362H8.656c1.198,0,2.089,0.968,2.089,2.084v4.168
					c0,1.116-0.891,2.093-2.089,2.093H-5.791v16.541c0,4.547,3.725,8.268,8.264,8.268h6.184c1.198,0,2.089,0.895,2.089,2.084
					V642.776z"/>
				<path fill="#FFFFFF" d="M85.387,628.329c0,9.09-7.445,16.544-16.531,16.544h-8.272c-9.091,0-16.54-7.454-16.54-16.544v-8.269
					c0-9.163,7.449-16.617,16.54-16.617h8.272c9.086,0,16.531,7.454,16.531,16.617V628.329z M77.119,620.061
					c0-4.543-3.721-8.272-8.264-8.272h-8.272c-4.548,0-8.268,3.729-8.268,8.272v8.269c0,4.547,3.72,8.268,8.268,8.268h8.272
					c4.543,0,8.264-3.721,8.264-8.268V620.061z"/>
				<path fill="#FFFFFF" d="M138.019,642.776c0,1.197-0.896,2.097-2.093,2.097h-4.092c-1.188,0-2.084-0.899-2.084-2.097v-22.716
					c0-4.543-3.725-8.272-8.272-8.272h-16.54v30.988c0,1.197-0.972,2.097-2.084,2.097h-4.172c-1.112,0-2.012-0.899-2.012-2.097
					v-37.249c0-1.116,0.899-2.084,2.012-2.084h22.796c9.091,0,16.541,7.454,16.541,16.617V642.776z"/>
				<path fill="#FFFFFF" d="M-223.471,603.443h-3.944c-1.237,0-2.24,1.003-2.24,2.239v6.104v12.372v12.445v6.033
					c0,1.236,1.003,2.239,2.24,2.239h3.789c1.237,0,2.24-1.003,2.24-2.239v-6.033v-31.074
					C-221.387,604.411-222.278,603.443-223.471,603.443z"/>
				<path fill="#FFFFFF" d="M-149.331,603.294h-3.944c-1.237,0-2.24,1.003-2.24,2.24v6.107v12.367v12.441v6.041
					c0,1.237,1.003,2.24,2.24,2.24h3.793c1.237,0,2.24-1.003,2.24-2.24v-6.041v-31.068
					C-147.243,604.267-148.14,603.294-149.331,603.294z"/>
				<path fill="#FFFFFF" d="M30.31,603.443h-3.942c-1.237,0-2.24,1.003-2.24,2.239v6.104v12.372v12.445v6.033
					c0,1.236,1.003,2.239,2.24,2.239h3.791c1.237,0,2.24-1.003,2.24-2.239v-6.033v-31.071
					C32.398,604.411,31.505,603.443,30.31,603.443z"/>
				<path fill="#FFFFFF" d="M-91.627,589.968c0-0.529-0.21-1.031-0.583-1.401c-0.371-0.37-0.881-0.579-1.408-0.576l-4.313,0.034
					c-1.089,0.016-1.959,0.896-1.959,1.982v32.942c0,0.595-0.273,1.15-0.728,1.526l-11.722,9.568l-11.645-9.568
					c-0.454-0.376-0.716-0.932-0.716-1.52v-13.375c0-0.807-0.372-1.568-1.008-2.064l-5.035-3.925
					c-0.417-0.324-0.981-0.384-1.456-0.151c-0.475,0.231-0.775,0.713-0.775,1.241v23.382c0,0.584,0.262,1.139,0.716,1.516
					l17.189,14.303c1.584,1.318,3.881,1.318,5.465,0.004l17.264-14.307c0.452-0.377,0.714-0.938,0.714-1.516V589.968z"/>
				<circle fill="#FFFFFF" cx="-225.521" cy="586.677" r="7.52"/>
				<circle fill="#FFFFFF" cx="-295.889" cy="586.677" r="7.518"/>
				<circle fill="#FFFFFF" cx="-240.059" cy="516.488" r="7.52"/>
				<g>
					<path fill="#FFFFFF" d="M-141.823,513.374"/>
				</g>
				<circle fill="#FFFFFF" cx="-132.63" cy="511.118" r="7.52"/>
				<path fill="#FFFFFF" d="M-143.857,662.305c0,4.149-3.368,7.513-7.522,7.513s-7.522-3.363-7.522-7.513
					c0-4.154,3.368-7.522,7.522-7.522S-143.857,658.15-143.857,662.305z"/>
				<path fill="#FFFFFF" d="M35.779,586.677c0,4.15-3.368,7.518-7.518,7.518c-4.154,0-7.522-3.367-7.522-7.518
					c0-4.154,3.368-7.518,7.522-7.518C32.411,579.159,35.779,582.522,35.779,586.677z"/>
				<path fill="#FFFFFF" d="M-153.201,587.997h-61.385c-0.796,0-1.447-0.653-1.447-1.451c0-0.805,0.651-1.453,1.447-1.453h56.562
					c0.218,0,0.412-0.139,0.483-0.345s0.003-0.435-0.168-0.568l-25.072-19.592c-4.048-3.163-9.729-3.164-13.778-0.003
					l-20.126,15.711c-0.626,0.5-1.54,0.395-2.039-0.228c-0.497-0.631-0.391-1.546,0.235-2.041l22.495-17.566
					c0.956-0.747,1.516-1.893,1.519-3.105c0.002-1.214-0.553-2.36-1.506-3.111l-5.351-4.214c-3.502-2.758-8.255-3.316-12.302-1.447
					l-11.213,5.181c-3.455,1.597-5.364,5.353-4.618,9.084l2.597,12.987c0.156,0.789-0.357,1.546-1.144,1.699
					c-0.787,0.154-1.548-0.363-1.7-1.148l-2.673-13.327c-0.258-1.285-1.091-2.382-2.26-2.975c-1.169-0.593-2.546-0.617-3.736-0.065
					l-47.873,22.197c-0.728,0.336-1.587,0.022-1.933-0.705c-0.333-0.722-0.025-1.587,0.703-1.929l47.587-21.895l0.027-0.013
					c3.442-1.595,5.348-5.338,4.613-9.06l-4.168-21.122c-0.158-0.784,0.355-1.549,1.14-1.702c0.786-0.16,1.55,0.351,1.706,1.135
					l4.214,21.347c0.254,1.288,1.085,2.388,2.255,2.984c1.169,0.596,2.548,0.622,3.739,0.071l11.839-5.474
					c1.042-0.482,1.757-1.471,1.888-2.61c0.132-1.14-0.339-2.267-1.244-2.973l-19.238-15.022c-0.626-0.493-0.737-1.401-0.246-2.032
					c0.493-0.63,1.403-0.741,2.039-0.249l18.979,14.796c3.501,2.73,8.236,3.273,12.265,1.407l56.439-26.137
					c0.726-0.352,1.593-0.052,1.941,0.674l0,0c0.33,0.674,0.086,1.482-0.533,1.869l-56.952,26.327
					c-1.039,0.48-1.753,1.465-1.888,2.602c-0.134,1.136,0.331,2.261,1.229,2.97l6.941,5.481c1.903,1.507,4.588,1.515,6.503,0.024
					l45.225-35.289c0.637-0.488,1.544-0.363,2.03,0.273c0.486,0.631,0.368,1.545-0.273,2.032l-43.896,34.254
					c-0.954,0.748-1.517,1.896-1.517,3.11c-0.007,1.221,0.554,2.368,1.517,3.114l31.368,24.505c0.321,0.324,0.522,0.762,0.522,1.252
					C-151.433,587.206-152.229,587.997-153.201,587.997"/>
				<path fill="#FFFFFF" d="M-236.467,587.993c0.805,0,1.456-0.651,1.456-1.447c0-0.805-0.651-1.451-1.456-1.451l0,0h-48.672l0,0
					c-0.8,0.005-1.446,0.66-1.442,1.461c0.009,0.8,0.66,1.441,1.464,1.438v0.004h48.649V587.993z"/>
			</g>
		</g>
		<g>
			<g>
				<g>
					<g>
						<path fill="#383A35" stroke="#383A35" stroke-width="0.2314" stroke-miterlimit="10" d="M-228.939,716.041h3.921
							l10.017,16.844v-16.844h2.597v20.374h-3.612l-10.356-17.3v17.3h-2.567V716.041z"/>
						<path fill="#383A35" stroke="#383A35" stroke-width="0.2314" stroke-miterlimit="10" d="M-205.576,729.811
							c-0.057,2.934,1.157,5.108,4.064,5.108c1.722,0,3.103-0.904,3.329-2.934h2.654c-0.086,0.705-0.199,1.862-1.214,2.96
							c-0.622,0.706-2.032,1.89-4.882,1.89c-4.457,0-6.575-2.762-6.575-7.25c0-2.794,0.565-5.108,2.793-6.659
							c1.354-0.958,3.047-1.044,3.865-1.044c6.349,0,6.208,5.614,6.152,7.929H-205.576z M-198.097,727.948
							c0.027-1.356-0.226-4.177-3.499-4.177c-1.722,0-3.811,1.044-3.867,4.177H-198.097z"/>
						<path fill="#383A35" stroke="#383A35" stroke-width="0.2314" stroke-miterlimit="10" d="M-189.067,722.248v9.113
							c0,1.383,0.312,3.133,3.02,3.133c1.327,0,2.568-0.452,3.33-1.578c0.592-0.85,0.592-1.948,0.592-2.653v-8.015h2.737v11.514
							c0,0.28,0.057,1.862,0.086,2.653h-2.767l-0.057-2.428c-0.506,0.985-1.467,2.567-4.514,2.567c-3.499,0-5.135-2.002-5.135-4.796
							v-9.511H-189.067z"/>
						<path fill="#383A35" stroke="#383A35" stroke-width="0.2314" stroke-miterlimit="10" d="M-174.111,725.127
							c0-0.958-0.056-1.948-0.14-2.879h2.68l0.057,2.739c0.506-1.976,2.199-2.626,3.386-2.794c0.789-0.112,1.381-0.086,1.833-0.059
							v2.595c-0.14-0.054-0.31-0.081-0.506-0.108c-0.199-0.031-0.452-0.031-0.764-0.031c-3.13,0-3.865,1.862-3.865,4.289v7.536
							h-2.681V725.127z"/>
						<path fill="#383A35" stroke="#383A35" stroke-width="0.2314" stroke-miterlimit="10" d="M-157.123,721.882
							c5.673,0,6.941,4.457,6.941,7.423c0,4.145-2.341,7.59-7.167,7.59c-4.683,0-6.968-3.246-6.968-7.396
							C-164.317,726-162.681,721.882-157.123,721.882z M-157.293,734.919c2.005,0,4.29-1.438,4.29-5.7
							c0-3.526-1.636-5.389-4.12-5.389c-1.693,0-4.43,1.071-4.43,5.501C-161.553,732.238-160.313,734.919-157.293,734.919z"/>
						<path fill="#383A35" stroke="#383A35" stroke-width="0.2314" stroke-miterlimit="10" d="M-146.062,724.138l-0.057-1.89h2.681
							v2.062c1.354-2.229,3.273-2.428,4.486-2.428c3.133,0,4.121,1.609,4.629,2.653c0.479-0.791,1.637-2.653,4.77-2.653
							c2.029,0,5.191,0.845,5.191,5.022v9.511h-2.681v-9.086c0-1.243-0.226-1.776-0.481-2.147c-0.45-0.646-1.354-1.238-2.708-1.238
							c-1.722,0-2.654,0.985-3.02,1.496c-0.621,0.872-0.621,2.423-0.621,3.047v7.929h-2.681v-9.371c0-1.749-1.015-3.101-3.104-3.101
							c-1.806,0-2.793,1.125-3.103,1.55c-0.592,0.818-0.622,1.976-0.622,2.88v8.042h-2.681V724.138z"/>
						<path fill="#383A35" stroke="#383A35" stroke-width="0.2314" stroke-miterlimit="10" d="M-113.243,721.882
							c5.673,0,6.941,4.457,6.941,7.423c0,4.145-2.342,7.59-7.167,7.59c-4.683,0-6.968-3.246-6.968-7.396
							C-120.438,726-118.801,721.882-113.243,721.882z M-113.413,734.919c2.005,0,4.29-1.438,4.29-5.7
							c0-3.526-1.636-5.389-4.12-5.389c-1.693,0-4.43,1.071-4.43,5.501C-117.673,732.238-116.433,734.919-113.413,734.919z"/>
						<path fill="#383A35" stroke="#383A35" stroke-width="0.2314" stroke-miterlimit="10" d="M-102.012,725.127
							c0-0.958-0.056-1.948-0.14-2.879h2.681l0.057,2.739c0.506-1.976,2.199-2.626,3.386-2.794c0.789-0.112,1.381-0.086,1.833-0.059
							v2.595c-0.14-0.054-0.31-0.081-0.509-0.108c-0.196-0.031-0.45-0.031-0.761-0.031c-3.13,0-3.865,1.862-3.865,4.289v7.536
							h-2.681V725.127z"/>
						<path fill="#383A35" stroke="#383A35" stroke-width="0.2314" stroke-miterlimit="10" d="M-91.26,724.563
							c0-0.619-0.027-0.959-0.083-2.314h2.681l0.057,2.342c1.324-2.229,3.668-2.568,4.825-2.568c3.046,0,5.952,2.089,5.952,7.337
							c0,5.275-3.073,7.59-6.46,7.59c-2.062,0-3.585-0.872-4.347-2.115v7.023h-2.624V724.563z M-84.742,735.005
							c0.678,0,2.088-0.145,2.99-1.384c1.017-1.383,1.156-3.417,1.156-4.43c0-2.541-0.759-5.194-3.893-5.194
							c-4.231,0-4.231,4.489-4.231,5.759C-88.72,731.474-88.467,735.005-84.742,735.005z"/>
						<path fill="#383A35" stroke="#383A35" stroke-width="0.2314" stroke-miterlimit="10" d="M-73.933,716.068h2.681v8.268
							c0.873-1.496,2.622-2.341,4.598-2.341c1.496,0,3.639,0.537,4.457,2.255c0.285,0.565,0.479,1.243,0.479,3.305v8.86h-2.708
							v-8.381c0-1.271,0-4.01-3.047-4.01c-1.976,0-2.961,1.216-3.331,1.894c-0.448,0.787-0.448,2.116-0.448,2.988v7.509h-2.681
							V716.068z"/>
						<path fill="#383A35" stroke="#383A35" stroke-width="0.2314" stroke-miterlimit="10" d="M-56.949,716.096h3.191v2.906h-3.191
							V716.096z M-56.664,722.248h2.653v14.167h-2.653V722.248z"/>
						<path fill="#383A35" stroke="#383A35" stroke-width="0.2314" stroke-miterlimit="10" d="M-40.779,726.791
							c-0.054-0.646-0.253-2.961-2.82-2.961c-3.666,0-3.666,4.258-3.666,5.334c0,2.902,0.705,5.614,3.525,5.614
							c2.256,0,3.02-1.695,3.074-3.078h2.681c-0.167,2.767-2.229,5.081-5.728,5.081c-0.958,0-3.16-0.199-4.656-1.836
							c-0.846-0.985-1.69-2.481-1.69-5.415c0-5.899,3.611-7.648,6.433-7.648c0.931,0,3.047,0.199,4.344,1.749
							c1.045,1.212,1.131,2.369,1.185,3.16H-40.779z"/>
						<path fill="#383A35" stroke="#383A35" stroke-width="0.2314" stroke-miterlimit="10" d="M-27.037,736.415v-17.978h-6.826
							v-2.396h16.45v2.396h-6.83v17.978H-27.037z"/>
						<path fill="#383A35" stroke="#383A35" stroke-width="0.2314" stroke-miterlimit="10" d="M-16.369,729.811
							c-0.054,2.934,1.157,5.108,4.064,5.108c1.722,0,3.105-0.904,3.331-2.934h2.654c-0.086,0.705-0.199,1.862-1.217,2.96
							c-0.619,0.706-2.029,1.89-4.882,1.89c-4.457,0-6.572-2.762-6.572-7.25c0-2.794,0.564-5.108,2.793-6.659
							c1.352-0.958,3.047-1.044,3.865-1.044c6.347,0,6.207,5.614,6.152,7.929H-16.369z M-8.888,727.948
							c0.027-1.356-0.226-4.177-3.499-4.177c-1.722,0-3.811,1.044-3.869,4.177H-8.888z"/>
						<path fill="#383A35" stroke="#383A35" stroke-width="0.2314" stroke-miterlimit="10" d="M5.781,726.791
							c-0.054-0.646-0.253-2.961-2.82-2.961c-3.666,0-3.666,4.258-3.666,5.334c0,2.902,0.705,5.614,3.525,5.614
							c2.256,0,3.02-1.695,3.074-3.078h2.681c-0.167,2.767-2.229,5.081-5.728,5.081c-0.958,0-3.16-0.199-4.656-1.836
							c-0.845-0.985-1.69-2.481-1.69-5.415c0-5.899,3.612-7.648,6.433-7.648c0.932,0,3.047,0.199,4.344,1.749
							c1.045,1.212,1.131,2.369,1.185,3.16H5.781z"/>
						<path fill="#383A35" stroke="#383A35" stroke-width="0.2314" stroke-miterlimit="10" d="M10.415,716.068h2.681v8.268
							c0.872-1.496,2.622-2.341,4.598-2.341c1.496,0,3.639,0.537,4.457,2.255c0.284,0.565,0.479,1.243,0.479,3.305v8.86h-2.707
							v-8.381c0-1.271,0-4.01-3.047-4.01c-1.976,0-2.961,1.216-3.332,1.894c-0.447,0.787-0.447,2.116-0.447,2.988v7.509h-2.681
							V716.068z"/>
						<path fill="#383A35" stroke="#383A35" stroke-width="0.2314" stroke-miterlimit="10" d="M27.737,723.884l-0.027-1.636h2.653
							l0.027,2.287c0.313-0.592,1.324-2.567,4.543-2.567c1.271,0,5.136,0.479,5.136,4.823v9.624h-2.708v-9.005
							c0-0.927-0.113-1.776-0.764-2.423c-0.674-0.651-1.605-0.963-2.509-0.963c-1.922,0-3.698,1.383-3.698,4.235v8.155h-2.653
							V723.884z"/>
						<path fill="#383A35" stroke="#383A35" stroke-width="0.2314" stroke-miterlimit="10" d="M51.045,721.882
							c5.673,0,6.943,4.457,6.943,7.423c0,4.145-2.342,7.59-7.17,7.59c-4.683,0-6.966-3.246-6.966-7.396
							C43.853,726,45.489,721.882,51.045,721.882z M50.878,734.919c2.002,0,4.289-1.438,4.289-5.7c0-3.526-1.636-5.389-4.122-5.389
							c-1.69,0-4.43,1.071-4.43,5.501C46.615,732.238,47.857,734.919,50.878,734.919z"/>
						<path fill="#383A35" stroke="#383A35" stroke-width="0.2314" stroke-miterlimit="10" d="M62.196,716.068h2.649v20.347h-2.649
							V716.068z"/>
						<path fill="#383A35" stroke="#383A35" stroke-width="0.2314" stroke-miterlimit="10" d="M76.133,721.882
							c5.674,0,6.939,4.457,6.939,7.423c0,4.145-2.342,7.59-7.165,7.59c-4.683,0-6.971-3.246-6.971-7.396
							C68.937,726,70.573,721.882,76.133,721.882z M75.962,734.919c2.007,0,4.29-1.438,4.29-5.7c0-3.526-1.637-5.389-4.119-5.389
							c-1.694,0-4.43,1.071-4.43,5.501C71.703,732.238,72.941,734.919,75.962,734.919z"/>
						<path fill="#383A35" stroke="#383A35" stroke-width="0.2314" stroke-miterlimit="10" d="M89.763,737.514
							c0.112,1.582,0.791,2.767,3.304,2.767c3.693,0,3.753-2.681,3.753-6.519c-1.131,2.342-3.812,2.4-4.656,2.4
							c-1.298,0-3.16-0.285-4.345-1.75c-1.216-1.441-1.609-3.331-1.609-5.221c0-4.796,2.821-7.143,6.293-7.143
							c2.848,0,3.892,1.415,4.457,2.147l0.027-1.948h2.567l-0.054,2.567l-0.027,8.86c0,3.417-0.113,4.796-0.679,5.872
							c-1.184,2.256-3.95,2.535-5.898,2.535c-5.669,0-5.841-2.648-5.954-4.569H89.763z M95.942,732.776
							c0.564-0.737,0.962-1.497,0.962-4.064c0-1.781-0.397-2.794-1.103-3.53c-0.705-0.76-1.835-1.238-3.047-1.238
							c-3.358,0-3.811,3.386-3.811,5.189c0,2.174,0.651,5.054,3.896,5.054C94.392,734.187,95.296,733.621,95.942,732.776z"/>
						<path fill="#383A35" stroke="#383A35" stroke-width="0.2314" stroke-miterlimit="10" d="M104.21,716.096h3.191v2.906h-3.191
							V716.096z M104.494,722.248h2.654v14.167h-2.654V722.248z"/>
						<path fill="#383A35" stroke="#383A35" stroke-width="0.2314" stroke-miterlimit="10" d="M113.92,729.811
							c-0.059,2.934,1.157,5.108,4.063,5.108c1.723,0,3.102-0.904,3.327-2.934h2.653c-0.086,0.705-0.198,1.862-1.211,2.96
							c-0.624,0.706-2.034,1.89-4.882,1.89c-4.458,0-6.578-2.762-6.578-7.25c0-2.794,0.565-5.108,2.794-6.659
							c1.356-0.958,3.047-1.044,3.87-1.044c6.347,0,6.206,5.614,6.147,7.929H113.92z M121.396,727.948
							c0.027-1.356-0.226-4.177-3.499-4.177c-1.722,0-3.811,1.044-3.864,4.177H121.396z"/>
						<path fill="#383A35" stroke="#383A35" stroke-width="0.2314" stroke-miterlimit="10" d="M129.524,732.211
							c-0.031,1.071,0.533,2.567,3.101,2.567c1.104,0,1.922-0.198,2.486-0.904c0.28-0.366,0.448-0.845,0.448-1.324
							c0-1.383-0.985-1.637-3.102-2.12c-2.965-0.674-5.447-1.266-5.447-4.231c0-2.595,2.256-4.289,5.533-4.289
							c1.776,0,4.259,0.511,5.104,2.201c0.371,0.791,0.371,1.469,0.371,2.062h-2.713c0.086-2.147-1.776-2.314-2.734-2.314
							c-0.397,0-2.88,0-2.88,2.029c0,1.302,1.271,1.609,2.003,1.809c3.924,0.931,4.769,1.157,5.614,1.948
							c0.791,0.732,1.076,1.718,1.076,2.622c0,1.582-0.877,2.934-1.922,3.584c-1.238,0.76-2.734,0.959-4.203,0.959
							c-2.88,0-5.561-1.185-5.529-4.598H129.524z"/>
					</g>
				</g>
			</g>
		</g>
	</g>
</g>
</svg>
